# xmcd
#
# Track frame offsets:
#	150
#	20902
#	38485
#	59077
#	75344
#	98980
#	122174
#	146953
#	172870
#	192608
#
# Disc length: 2931 seconds
#
# Revision: 0
# Processed by: cddbd v1.5.2PL0 Copyright (c) Steve Scherf et al.
# Submitted via: dBpowerAMP V4.0
#
DISCID=8c0b710a
DTITLE=Djamidjan Koly - Djanjo
DYEAR=2008
DGENRE=Blues
TTITLE0=Djanjo
TTITLE1=Dakan
TTITLE2=Aurélie
TTITLE3=Djéliya
TTITLE4=Hakilima
TTITLE5=Sigui yoro
TTITLE6=Fabara
TTITLE7=Dianeba
TTITLE8=Soungouroumba
TTITLE9=Tolona
EXTD=Distribution - Diyafrika\nContact - myspace.com/djamidjankoly
EXTT0=
EXTT1=
EXTT2=
EXTT3=
EXTT4=
EXTT5=
EXTT6=
EXTT7=
EXTT8=
EXTT9=
PLAYORDER=
